<!DOCTYPE svg PUBLIC "-//W3C//DTD SVG 1.1//EN" "http://www.w3.org/Graphics/SVG/1.1/DTD/svg11.dtd">
<!-- Uploaded to: SVG Repo, www.svgrepo.com, Transformed by: SVG Repo Mixer Tools -->
<svg fill="#8f8f8f" height="96px" width="96px" version="1.1" id="Layer_1" xmlns="http://www.w3.org/2000/svg" xmlns:xlink="http://www.w3.org/1999/xlink" viewBox="0 0 375.996 375.996" xml:space="preserve" stroke="#8f8f8f">
<g id="SVGRepo_bgCarrier" stroke-width="0"/>
<g id="SVGRepo_tracerCarrier" stroke-linecap="round" stroke-linejoin="round"/>
<g id="SVGRepo_iconCarrier"> <g> <g> <path d="M360.483,347.108L337.731,56.976c-0.516-6.608-6.276-11.536-12.9-11.024c-6.608,0.516-11.54,6.292-11.024,12.9 l22.752,290.132c0.088,1.116-0.312,1.804-0.664,2.184s-1.004,0.832-2.12,0.832H42.407c-1.156,0-1.848-0.484-2.228-0.892 c-0.38-0.4-0.82-1.128-0.74-2.28l18.94-285.812c0.44-6.612-4.568-12.328-11.18-12.768c-6.612-0.452-12.328,4.564-12.768,11.18 L15.491,347.24c-0.5,7.592,2.044,14.792,7.168,20.268c5.124,5.472,12.14,8.488,19.752,8.488h291.368 c7.528,0,14.724-3.112,19.732-8.536C358.531,362.032,361.071,354.616,360.483,347.108z"/> </g> </g> <g> <g> <path d="M118.411,91.996c-19.848,0-36,16.152-36,36c0,19.848,16.152,36,36,36c19.848,0,36-16.152,36-36 C154.411,108.148,138.259,91.996,118.411,91.996z M118.411,147.996c-11.028,0-20-8.972-20-20s8.972-20,20-20s20,8.972,20,20 S129.439,147.996,118.411,147.996z"/> </g> </g> <g> <g> <path d="M250.411,91.996c-19.848,0-36,16.152-36,36c0,19.848,16.152,36,36,36c19.848,0,36-16.152,36-36 C286.411,108.148,270.259,91.996,250.411,91.996z M250.411,147.996c-11.028,0-20-8.972-20-20s8.972-20,20-20s20,8.972,20,20 S261.439,147.996,250.411,147.996z"/> </g> </g> <g> <g> <path d="M250.411,123.996c-4.416,0-8,3.58-8,8v68c0,31.98-26.02,58-58,58s-58-26.02-58-58v-68c0-4.42-3.584-8-8-8s-8,3.58-8,8v68 c0,40.804,33.196,74,74,74s74-33.196,74-74v-68C258.411,127.576,254.827,123.996,250.411,123.996z"/> </g> </g> <g> <g> <path d="M337.607,59.504l-17.12-44.36C317.103,6.368,307.819,0,298.411,0H76.867c-9.2,0-18.532,6.128-22.188,14.568L35.403,59.052 c-2.64,6.08,0.156,13.144,6.236,15.78s13.144-0.156,15.78-6.24l19.144-44.176c0.164-0.152,0.44-0.332,0.644-0.42h220.772 c0.092,0.052,0.192,0.12,0.272,0.188l16.968,43.956c1.836,4.764,6.38,7.684,11.196,7.684c1.436,0,2.896-0.26,4.316-0.804 C336.915,72.632,339.995,65.688,337.607,59.504z"/> </g> </g> <g> <g> <path d="M326.411,51.996h-280c-4.416,0-8,3.584-8,8s3.584,8,8,8h280c4.416,0,8-3.584,8-8S330.827,51.996,326.411,51.996z"/> </g> </g> </g>
</svg>